#!OML:ASF E:\Style4\Style4.ASF
:FULLY-SPECIFIED
:DEGREES
1511
root -0.121015 17.5653 -2.4977 1.28927 -13.6472 0.132596
lowerback 11.8593 -0.712208 -3.71456
upperback 6.61869 -1.36474 -1.37136
thorax 0.329283 -0.774074 0.817864
lowerneck 2.44061 -0.0971019 -6.05785
upperneck 3.02987 -0.270216 1.00703
head 0.538472 -0.196106 1.32859
rclavicle 2.14687e-014 1.27222e-014
rhumerus -10.8621 -21.2072 -31.9347
rradius 63.81
rwrist -2.02088
rhand -20.6918 9.31602
rfingers 7.12502
rthumb 5.67188 -20.5881
lclavicle 2.14687e-014 1.27222e-014
lhumerus 0.745767 4.85683 39.0418
lradius 79.7771
lwrist 1.22573
lhand -16.6896 31.9521
lfingers 7.12502
lthumb 9.53485 61.7164
rfemur -21.748 5.48996 18.5159
rtibia 37.4767
rfoot -16.9721 -5.50367
rtoes -9.15079
lfemur -15.7079 7.25238 -19.502
ltibia 37.9891
lfoot -24.5189 13.1773
ltoes -10.6174
1512
root -0.129428 17.5663 -2.50124 1.27525 -13.1715 0.00263344
lowerback 11.9164 -0.736013 -3.75415
upperback 6.56549 -1.40436 -1.49723
thorax 0.242243 -0.79003 0.715826
lowerneck 2.49344 -0.0151351 -6.12771
upperneck 3.10909 -0.17055 1.28512
head 0.551415 -0.147434 1.42991
rclavicle 2.50469e-014 -2.46493e-014
rhumerus -10.6602 -20.9646 -31.2412
rradius 63.9208
rwrist -1.95442
rhand -20.6907 9.24352
rfingers 7.12502
rthumb 5.673 -20.6605
lclavicle 2.50469e-014 -2.46493e-014
lhumerus 0.421004 4.54456 39.6425
lradius 80.2175
lwrist 0.904722
lhand -16.525 31.7251
lfingers 7.12502
lthumb 9.69365 61.4821
rfemur -21.5844 5.19049 18.689
rtibia 37.4133
rfoot -17.0074 -5.65801
rtoes -8.99995
lfemur -15.751 6.96041 -19.3178
ltibia 38.0403
lfoot -24.4393 13.0034
ltoes -10.277
1513
root -0.142354 17.5674 -2.5011 1.23727 -12.7785 -0.158631
lowerback 11.9324 -0.662846 -3.73016
upperback 6.52735 -1.30774 -1.62321
thorax 0.186077 -0.737166 0.56179
lowerneck 2.41889 0.011319 -6.21331
upperneck 3.3902 -0.137433 1.64145
head 0.651508 -0.134819 1.56055
rclavicle -1.98785e-015 -2.78299e-014
rhumerus -10.6474 -20.8124 -30.4125
rradius 64.0368
rwrist -1.87746
rhand -20.5388 9.26787
rfingers 7.12502
rthumb 5.81963 -20.6322
lclavicle -1.98785e-015 -2.78299e-014
lhumerus 0.285622 4.04943 40.2842
lradius 80.7401
lwrist 0.825152
lhand -16.2981 32.0702
lfingers 7.12502
lthumb 9.91256 61.8168
rfemur -21.3865 5.05174 18.9109
rtibia 37.3458
rfoot -17.0278 -5.87115
rtoes -8.95212
lfemur -15.7427 6.78917 -19.0759
ltibia 38.0923
lfoot -24.2831 12.8291
ltoes -10.2759
1514
root -0.160311 17.5674 -2.50154 1.2339 -12.4608 -0.291021
lowerback 11.8772 -0.538868 -3.80362
upperback 6.49587 -1.1499 -1.72316
thorax 0.176954 -0.657527 0.48101
lowerneck 2.43295 0.0313106 -6.31635
upperneck 3.5273 -0.120566 1.98426
head 0.692567 -0.127972 1.69032
rclavicle -1.98785e-015 -3.57812e-014
rhumerus -10.5973 -20.657 -29.5664
rradius 64.1515
rwrist -1.75602
rhand -20.3569 9.33451
rfingers 7.12502
rthumb 5.99527 -20.5607
lclavicle -1.98785e-015 -3.57812e-014
lhumerus 0.139654 3.54871 40.956
lradius 81.1731
lwrist 0.795421
lhand -16.3037 32.5775
lfingers 7.12502
lthumb 9.90714 62.3244
rfemur -21.2741 5.04615 19.1143
rtibia 37.2915
rfoot -17.0096 -6.17211
rtoes -8.80679
lfemur -15.7873 6.70283 -18.8561
ltibia 38.1493
lfoot -24.1862 12.6839
ltoes -10.5807
1515
root -0.176427 17.5669 -2.50649 1.2598 -12.0856 -0.38793
lowerback 11.8339 -0.455631 -3.82842
upperback 6.51015 -1.04069 -1.87976
thorax 0.209072 -0.60119 0.319383
lowerneck 2.34025 0.0397195 -6.38094
upperneck 3.55668 -0.112231 2.35345
head 0.718381 -0.122294 1.82242
rclavicle -3.37934e-014 -7.15625e-015
rhumerus -10.4263 -20.5924 -28.8699
rradius 64.2163
rwrist -1.57095
rhand -20.2216 9.4518
rfingers 7.12502
rthumb 6.12586 -20.4396
lclavicle -3.37934e-014 -7.15625e-015
lhumerus 0.0399772 3.17542 41.5153
lradius 81.4726
lwrist 0.685424
lhand -16.231 32.4462
lfingers 7.12502
lthumb 9.97725 62.1897
rfemur -21.2136 4.94945 19.2769
rtibia 37.2703
rfoot -17.069 -6.42247
rtoes -8.64713
lfemur -15.8939 6.57916 -18.6815
ltibia 38.197
lfoot -24.0258 12.5153
ltoes -10.6531
1516
root -0.190767 17.5674 -2.51011 1.28464 -11.6228 -0.423305
lowerback 11.7827 -0.378549 -3.80217
upperback 6.59311 -0.932204 -2.09689
thorax 0.316035 -0.544663 0.065696
lowerneck 1.88523 -0.0255501 -6.22567
upperneck 3.78147 -0.172473 2.57109
head 0.869718 -0.149485 1.86746
rclavicle 8.74653e-015 -2.14687e-014
rhumerus -10.2352 -20.7833 -28.2753
rradius 64.2609
rwrist -1.31691
rhand -19.9038 9.60123
rfingers 7.12502
rthumb 6.43273 -20.2811
lclavicle 8.74653e-015 -2.14687e-014
lhumerus 0.123926 2.74965 41.9774
lradius 81.6022
lwrist 0.602775
lhand -16.1397 32.333
lfingers 7.12502
lthumb 10.0654 62.0723
rfemur -21.1547 4.73248 19.3605
rtibia 37.2759
rfoot -17.1364 -6.64082
rtoes -8.46102
lfemur -16.0025 6.35818 -18.5894
ltibia 38.2159
lfoot -23.8681 12.4065
ltoes -11.1004
1517
root -0.204834 17.568 -2.50924 1.26596 -11.2215 -0.429529
lowerback 11.7101 -0.270798 -3.85337
upperback 6.68259 -0.788748 -2.27754
thorax 0.443721 -0.473537 -0.110697
lowerneck 1.3795 -0.114467 -5.97676
upperneck 4.146 -0.258887 2.58895
head 1.07447 -0.190847 1.83137
rclavicle 8.74653e-015 -7.95139e-016
rhumerus -9.94828 -20.9409 -27.6801
rradius 64.2486
rwrist -1.10902
rhand -19.7387 9.66703
rfingers 7.12502
rthumb 6.59204 -20.2104
lclavicle 8.74653e-015 -7.95139e-016
lhumerus 0.067821 2.17943 42.3742
lradius 81.6969
lwrist 0.739731
lhand -16.5196 32.8186
lfingers 7.12502
lthumb 9.69885 62.5753
rfemur -21.0658 4.56303 19.4019
rtibia 37.297
rfoot -17.2372 -6.7566
rtoes -7.74002
lfemur -16.0216 6.17096 -18.5322
ltibia 38.2064
lfoot -23.7487 12.3077
ltoes -11.3355
1518
root -0.216986 17.5701 -2.5085 1.27017 -10.7861 -0.361532
lowerback 11.644 -0.217686 -4.08227
upperback 6.69302 -0.736409 -2.4044
thorax 0.492027 -0.451525 -0.120746
lowerneck 1.24152 -0.0701838 -6.03772
upperneck 4.24542 -0.201437 2.88504
head 1.12906 -0.160235 1.9406
rclavicle -7.95139e-016 -3.18055e-015
rhumerus -9.49973 -20.8762 -27.1599
rradius 64.2137
rwrist -0.966756
rhand -19.667 9.68011
rfingers 7.12502
rthumb 6.66124 -20.1951
lclavicle -7.95139e-016 -3.18055e-015
lhumerus -0.315408 1.69094 42.7192
lradius 81.897
lwrist 0.801246
lhand -16.6862 33.0285
lfingers 7.12502
lthumb 9.53808 62.7926
rfemur -21.0187 4.38649 19.3537
rtibia 37.3167
rfoot -17.3163 -6.89307
rtoes -7.46953
lfemur -16.0768 5.90356 -18.571
ltibia 38.1766
lfoot -23.6491 12.2194
ltoes -11.4104
1519
root -0.230014 17.5715 -2.50901 1.29135 -10.3164 -0.329742
lowerback 11.6 -0.177319 -4.25202
upperback 6.68157 -0.696859 -2.52909
thorax 0.504588 -0.433543 -0.159839
lowerneck 1.36656 0.0360683 -6.35092
upperneck 4.04679 -0.0866073 3.52588
head 1.04332 -0.0992469 2.2079
rclavicle -2.42517e-014 2.14687e-014
rhumerus -9.08083 -20.7392 -26.6486
rradius 64.1776
rwrist -0.853992
rhand -19.4489 9.73027
rfingers 7.12502
rthumb 6.87179 -20.1382
lclavicle -2.42517e-014 2.14687e-014
lhumerus -0.740451 1.30091 43.0452
lradius 82.1383
lwrist 0.642688
lhand -16.3121 32.6755
lfingers 7.12502
lthumb 9.89908 62.4228
rfemur -20.979 4.16305 19.3525
rtibia 37.3393
rfoot -17.3682 -7.09028
rtoes -7.23927
lfemur -16.1703 5.6693 -18.558
ltibia 38.1691
lfoot -23.5459 12.0914
ltoes -11.7743
1520
root -0.245476 17.5704 -2.5106 1.27582 -9.86958 -0.363294
lowerback 11.6105 -0.107411 -4.35608
upperback 6.66438 -0.615573 -2.63053
thorax 0.479566 -0.392749 -0.215574
lowerneck 1.48821 0.115506 -6.51461
upperneck 3.93788 -0.00140441 3.98965
head 0.985457 -0.0543622 2.39157
rclavicle 1.74931e-014 -2.06736e-014
rhumerus -8.70502 -20.5826 -26.1309
rradius 64.1283
rwrist -0.746517
rhand -19.2369 9.74807
rfingers 7.12502
rthumb 7.07652 -20.1136
lclavicle 1.74931e-014 -2.06736e-014
lhumerus -1.25302 0.914566 43.4791
lradius 82.3606
lwrist 0.529939
lhand -16.3877 32.2143
lfingers 7.12502
lthumb 9.82616 61.9651
rfemur -20.8884 4.0074 19.4495
rtibia 37.3629
rfoot -17.3767 -7.45199
rtoes -7.55123
lfemur -16.2321 5.47436 -18.46
ltibia 38.1863
lfoot -23.4053 11.9833
ltoes -12.1243
1521
root -0.260467 17.5669 -2.51421 1.30047 -9.3615 -0.426463
lowerback 11.6206 -0.0613927 -4.41452
upperback 6.61863 -0.562305 -2.719
thorax 0.424917 -0.364038 -0.280128
lowerneck 1.53879 0.169964 -6.51752
upperneck 4.00331 0.0585157 4.27722
head 0.994994 -0.0229 2.48872
rclavicle -2.34566e-014 -1.59028e-014
rhumerus -8.32447 -20.2811 -25.6478
rradius 64.0883
rwrist -0.906464
rhand -19.2301 9.68674
rfingers 7.12502
rthumb 7.08299 -20.1747
lclavicle -2.34566e-014 -1.59028e-014
lhumerus -1.88715 0.503355 43.9095
lradius 82.6812
lwrist 0.423332
lhand -16.7646 32.0927
lfingers 7.12502
lthumb 9.46245 61.8602
rfemur -20.8435 3.83129 19.5676
rtibia 37.3822
rfoot -17.4359 -7.75403
rtoes -7.45402
lfemur -16.3747 5.24508 -18.3324
ltibia 38.2386
lfoot -23.2916 11.791
ltoes -12.2322
1522
root -0.276064 17.5656 -2.51436 1.31405 -8.84544 -0.491186
lowerback 11.5688 0.00363297 -4.42149
upperback 6.60707 -0.473562 -2.82032
thorax 0.437832 -0.317446 -0.391335
lowerneck 1.60026 0.179683 -6.44579
upperneck 4.03919 0.0608297 4.50373
head 0.996013 -0.0194613 2.55142
rclavicle 1.11319e-014 -1.59028e-014
rhumerus -8.04143 -19.9221 -25.1234
rradius 64.1281
rwrist -1.21334
rhand -19.2673 9.42653
rfingers 7.12502
rthumb 7.04715 -20.4362
lclavicle 1.11319e-014 -1.59028e-014
lhumerus -2.41209 0.0789743 44.2687
lradius 82.9948
lwrist 0.184239
lhand -16.9561 32.2924
lfingers 7.12502
lthumb 9.27772 62.0682
rfemur -20.7524 3.6286 19.6891
rtibia 37.3741
rfoot -17.5105 -8.0278
rtoes -7.37979
lfemur -16.5013 5.01883 -18.2004
ltibia 38.3086
lfoot -23.2398 11.5811
ltoes -12.1513
1523
root -0.293169 17.5662 -2.5121 1.23662 -8.36972 -0.655102
lowerback 11.6039 0.0976339 -4.31951
upperback 6.63784 -0.339948 -2.89241
thorax 0.446282 -0.246547 -0.53794
lowerneck 1.62204 0.170932 -6.36676
upperneck 4.05555 0.0427938 4.68588
head 0.998785 -0.0258753 2.59795
rclavicle 1.59028e-015 -6.36111e-014
rhumerus -7.79382 -19.5766 -24.6006
rradius 64.1974
rwrist -1.53656
rhand -19.2977 9.25196
rfingers 7.12502
rthumb 7.0178 -20.6117
lclavicle 1.59028e-015 -6.36111e-014
lhumerus -2.83573 -0.355746 44.5637
lradius 83.2384
lwrist 0.106991
lhand -16.885 32.297
lfingers 7.12502
lthumb 9.3463 62.0698
rfemur -20.5323 3.49684 19.9332
rtibia 37.3664
rfoot -17.6085 -8.34793
rtoes -7.37237
lfemur -16.4807 4.85305 -17.9364
ltibia 38.3747
lfoot -23.2221 11.3058
ltoes -12.039
